# xmcd CD database file
#
# Track frame offsets:
#	187
#	17362
#	27450
#	53075
#
# Disc length: 873 seconds
#
# Revision: 0
# Processed by: cddbd v1.5PL3 Copyright (c) Steve Scherf et al.
# Submitted via: CDex 1.51
#
DISCID=25036704
DTITLE=Emerson, Lake and Palmer - Affairs of the Heart
DYEAR=1992
DGENRE=Progressive Rock
TTITLE0=Affairs of the Heart
TTITLE1=A Blade of Grass
TTITLE2=Fanfare for the Common Man
TTITLE3=Jerusalem
EXTD=YEAR: 1992
EXTT0=
EXTT1=
EXTT2=
EXTT3=
PLAYORDER=
